<?xml version="1.0" encoding="UTF-8" standalone="no"?>
<svg
   xmlns:dc="http://purl.org/dc/elements/1.1/"
   xmlns:cc="http://creativecommons.org/ns#"
   xmlns:rdf="http://www.w3.org/1999/02/22-rdf-syntax-ns#"
   xmlns:svg="http://www.w3.org/2000/svg"
   xmlns="http://www.w3.org/2000/svg"
   xmlns:sodipodi="http://sodipodi.sourceforge.net/DTD/sodipodi-0.dtd"
   xmlns:inkscape="http://www.inkscape.org/namespaces/inkscape"
   id="Calque_1"
   data-name="Calque 1"
   viewBox="0 0 1080 1080"
   version="1.1"
   sodipodi:docname="2020_logo_ZipOps.io.svg"
   inkscape:version="0.92.3 (2405546, 2018-03-11)">
  <metadata
     id="metadata29">
    <rdf:RDF>
      <cc:Work
         rdf:about="">
        <dc:format>image/svg+xml</dc:format>
        <dc:type
           rdf:resource="http://purl.org/dc/dcmitype/StillImage" />
      </cc:Work>
    </rdf:RDF>
  </metadata>
  <sodipodi:namedview
     pagecolor="#ffffff"
     bordercolor="#666666"
     borderopacity="1"
     objecttolerance="10"
     gridtolerance="10"
     guidetolerance="10"
     inkscape:pageopacity="0"
     inkscape:pageshadow="2"
     inkscape:window-width="1848"
     inkscape:window-height="1052"
     id="namedview27"
     showgrid="false"
     inkscape:zoom="0.10925926"
     inkscape:cx="-2543.622"
     inkscape:cy="553.603"
     inkscape:window-x="72"
     inkscape:window-y="28"
     inkscape:window-maximized="1"
     inkscape:current-layer="Calque_1" />
  <defs
     id="defs4">
    <style
       id="style2">.cls-1,.cls-2,.cls-4{fill:#82d789;}.cls-1{opacity:0.25;}.cls-2{opacity:0.7;}.cls-3{fill:#1d1d1b;}.cls-5{fill:none;stroke:#000;stroke-miterlimit:10;stroke-width:5px;}</style>
  </defs>
  <title
     id="title6">logo6</title>
  <polygon
     class="cls-1"
     points="402.57,308.86 256.73,572.01 402.57,835.17 694.27,835.17 840.11,572.01 694.27,308.86 "
     id="polygon8"
     transform="matrix(1.4456901,0,0,1.4456901,-240.89886,-243.55402)"
     style="opacity:0.25;fill:#82d789" />
  <polygon
     class="cls-2"
     points="424.3,559.86 672.94,512.46 569.5,247.12 245.88,238.43 "
     id="polygon10"
     transform="matrix(1.4456901,0,0,1.4456901,-240.89886,-243.55402)"
     style="opacity:0.7;fill:#82d789" />
  <polygon
     class="cls-2"
     points="455.83,645.49 672.43,514.54 483.13,301.76 176.72,406.22 "
     id="polygon12"
     transform="matrix(1.4456901,0,0,1.4456901,-240.89886,-243.55402)"
     style="opacity:0.7;fill:#82d789" />
  <polygon
     class="cls-3"
     points="400.11,683.31 549.45,561.29 576.77,561.29 600.44,517.58 673.29,481.15 691.5,493.9 702.43,446.55 764.35,410.13 857.24,493.9 857.24,618.66 800.78,646.88 749.78,608.64 724.29,659.63 664.19,676.02 660.54,727.02 520.31,854.5 380.07,827.19 "
     id="polygon14"
     transform="matrix(1.4456901,0,0,1.4456901,-240.89886,-243.55402)"
     style="fill:#1d1d1b" />
  <polygon
     class="cls-4"
     points="525.25,850.01 401.82,682.13 431.84,657.38 548.42,828.95 "
     id="polygon16"
     transform="matrix(1.4456901,0,0,1.4456901,-240.89886,-243.55402)"
     style="fill:#82d789" />
  <polygon
     class="cls-4"
     points="575,804.79 453.49,638.96 483.51,614.21 600.09,781.98 "
     id="polygon18"
     transform="matrix(1.4456901,0,0,1.4456901,-240.89886,-243.55402)"
     style="fill:#82d789" />
  <polygon
     class="cls-4"
     points="624.3,759.96 504.32,596.76 534.34,572.01 647.63,738.75 "
     id="polygon20"
     transform="matrix(1.4456901,0,0,1.4456901,-240.89886,-243.55402)"
     style="fill:#82d789" />
  <polyline
     class="cls-5"
     points="788.69 432.07 847.38 344.09 903.28 368.93"
     id="polyline22"
     transform="matrix(1.4456901,0,0,1.4456901,-240.89886,-243.55402)"
     style="fill:none;stroke:#000000;stroke-width:5px;stroke-miterlimit:10" />
  <polyline
     class="cls-5"
     points="751.38 443.14 810.07 355.15 865.97 380"
     id="polyline24"
     transform="matrix(1.4456901,0,0,1.4456901,-240.89886,-243.55402)"
     style="fill:none;stroke:#000000;stroke-width:5px;stroke-miterlimit:10" />
</svg>
